<svg width="18" height="18" viewBox="0 0 18 18" fill="none" xmlns="http://www.w3.org/2000/svg">
<path d="M11.25 14.346C11.8897 14.5317 12.5526 14.6257 13.2188 14.625C14.2901 14.6265 15.3474 14.3823 16.3095 13.911C16.338 13.2388 16.1465 12.5756 15.7641 12.022C15.3817 11.4684 14.8293 11.0545 14.1905 10.8431C13.5518 10.6317 12.8615 10.6343 12.2244 10.8505C11.5872 11.0668 11.038 11.4848 10.6598 12.0413M11.25 14.346V14.3438C11.25 13.509 11.0355 12.7238 10.6598 12.0413M11.25 14.346V14.4255C9.80663 15.2948 8.15298 15.7528 6.46802 15.75C4.71977 15.75 3.08402 15.2662 1.68752 14.4255L1.68677 14.3438C1.68619 13.2821 2.03898 12.2504 2.68951 11.4114C3.34003 10.5724 4.2513 9.97382 5.27963 9.70995C6.30797 9.44607 7.39488 9.53196 8.36902 9.95407C9.34315 10.3762 10.1491 11.1105 10.6598 12.0413M9.00002 4.78125C9.00002 5.45258 8.73333 6.09641 8.25863 6.57111C7.78393 7.04582 7.1401 7.3125 6.46877 7.3125C5.79744 7.3125 5.15361 7.04582 4.6789 6.57111C4.2042 6.09641 3.93752 5.45258 3.93752 4.78125C3.93752 4.10992 4.2042 3.46609 4.6789 2.99139C5.15361 2.51668 5.79744 2.25 6.46877 2.25C7.1401 2.25 7.78393 2.51668 8.25863 2.99139C8.73333 3.46609 9.00002 4.10992 9.00002 4.78125ZM15.1875 6.46875C15.1875 6.99089 14.9801 7.49165 14.6109 7.86087C14.2417 8.23008 13.7409 8.4375 13.2188 8.4375C12.6966 8.4375 12.1959 8.23008 11.8267 7.86087C11.4574 7.49165 11.25 6.99089 11.25 6.46875C11.25 5.94661 11.4574 5.44585 11.8267 5.07663C12.1959 4.70742 12.6966 4.5 13.2188 4.5C13.7409 4.5 14.2417 4.70742 14.6109 5.07663C14.9801 5.44585 15.1875 5.94661 15.1875 6.46875Z" stroke="white" stroke-width="1.5" stroke-linecap="round" stroke-linejoin="round"/>
</svg>
