<svg width="25" height="24" viewBox="0 0 25 24" fill="none" xmlns="http://www.w3.org/2000/svg">
<path d="M11.97 3.83999C12.1106 3.69954 12.3013 3.62065 12.5 3.62065C12.6988 3.62065 12.8894 3.69954 13.03 3.83999L21.72 12.53C21.7887 12.6037 21.8715 12.6628 21.9635 12.7038C22.0555 12.7448 22.1548 12.7668 22.2555 12.7686C22.3562 12.7704 22.4562 12.7518 22.5496 12.7141C22.643 12.6764 22.7278 12.6202 22.7991 12.549C22.8703 12.4778 22.9264 12.393 22.9641 12.2996C23.0019 12.2062 23.0204 12.1062 23.0186 12.0055C23.0168 11.9048 22.9948 11.8055 22.9538 11.7135C22.9128 11.6215 22.8537 11.5387 22.78 11.47L14.091 2.77999C13.8821 2.57106 13.634 2.40532 13.3611 2.29225C13.0881 2.17917 12.7955 2.12097 12.5 2.12097C12.2045 2.12097 11.912 2.17917 11.639 2.29225C11.366 2.40532 11.118 2.57106 10.909 2.77999L2.21902 11.47C2.08247 11.6115 2.00696 11.801 2.00876 11.9976C2.01056 12.1943 2.08953 12.3824 2.22865 12.5214C2.36777 12.6603 2.55592 12.7391 2.75257 12.7407C2.94922 12.7424 3.13863 12.6667 3.28002 12.53L11.97 3.83999Z" fill="#C7D2FE"/>
<path d="M12.5 5.43205L20.659 13.5911C20.689 13.6211 20.719 13.6491 20.75 13.6771V19.8751C20.75 20.9101 19.91 21.7501 18.875 21.7501H15.5C15.3011 21.7501 15.1103 21.671 14.9697 21.5304C14.829 21.3897 14.75 21.199 14.75 21.0001V16.5001C14.75 16.3011 14.671 16.1104 14.5303 15.9697C14.3897 15.8291 14.1989 15.7501 14 15.7501H11C10.8011 15.7501 10.6103 15.8291 10.4697 15.9697C10.329 16.1104 10.25 16.3011 10.25 16.5001V21.0001C10.25 21.199 10.171 21.3897 10.0303 21.5304C9.88968 21.671 9.69891 21.7501 9.5 21.7501H6.125C5.62772 21.7501 5.15081 21.5525 4.79917 21.2009C4.44754 20.8492 4.25 20.3723 4.25 19.8751V13.6771C4.28111 13.6492 4.31146 13.6205 4.341 13.5911L12.5 5.43005V5.43205Z" fill="#C7D2FE"/>
</svg>
