<svg width="25" height="24" viewBox="0 0 25 24" fill="none" xmlns="http://www.w3.org/2000/svg">
<path d="M22.231 2.26906C21.7387 1.77687 21.0711 1.50037 20.375 1.50037C19.6789 1.50037 19.0113 1.77687 18.519 2.26906L17.362 3.42606L21.074 7.13806L22.231 5.98106C22.7232 5.48879 22.9997 4.82117 22.9997 4.12506C22.9997 3.42894 22.7232 2.76133 22.231 2.26906ZM20.013 8.19906L16.301 4.48706L7.90101 12.8871C7.28386 13.5039 6.83019 14.2648 6.58101 15.1011L5.78101 17.7861C5.74239 17.9156 5.73951 18.0532 5.77267 18.1843C5.80584 18.3154 5.87382 18.435 5.96943 18.5306C6.06503 18.6262 6.1847 18.6942 6.31577 18.7274C6.44684 18.7606 6.58444 18.7577 6.71401 18.7191L9.39901 17.9191C10.2352 17.6699 10.9962 17.2162 11.613 16.5991L20.013 8.19906Z" fill="#C7D2FE"/>
<path d="M5.75 5.25C4.95435 5.25 4.19129 5.56607 3.62868 6.12868C3.06607 6.69129 2.75 7.45435 2.75 8.25V18.75C2.75 19.5456 3.06607 20.3087 3.62868 20.8713C4.19129 21.4339 4.95435 21.75 5.75 21.75H16.25C17.0456 21.75 17.8087 21.4339 18.3713 20.8713C18.9339 20.3087 19.25 19.5456 19.25 18.75V13.5C19.25 13.3011 19.171 13.1103 19.0303 12.9697C18.8897 12.829 18.6989 12.75 18.5 12.75C18.3011 12.75 18.1103 12.829 17.9697 12.9697C17.829 13.1103 17.75 13.3011 17.75 13.5V18.75C17.75 19.1478 17.592 19.5294 17.3107 19.8107C17.0294 20.092 16.6478 20.25 16.25 20.25H5.75C5.35218 20.25 4.97064 20.092 4.68934 19.8107C4.40804 19.5294 4.25 19.1478 4.25 18.75V8.25C4.25 7.85218 4.40804 7.47064 4.68934 7.18934C4.97064 6.90804 5.35218 6.75 5.75 6.75H11C11.1989 6.75 11.3897 6.67098 11.5303 6.53033C11.671 6.38968 11.75 6.19891 11.75 6C11.75 5.80109 11.671 5.61032 11.5303 5.46967C11.3897 5.32902 11.1989 5.25 11 5.25H5.75Z" fill="#C7D2FE"/>
</svg>
