<svg width="139" height="40" viewBox="0 0 139 40" fill="none" xmlns="http://www.w3.org/2000/svg">
<path d="M25.4766 18.1172L21.7656 24.0156C21.6138 24.226 21.4292 24.4107 21.2188 24.5625C20.7108 24.9169 20.0836 25.0566 19.4732 24.9514C18.8629 24.8462 18.3187 24.5045 17.9587 24.0005C17.5987 23.4965 17.452 22.8709 17.5504 22.2594C17.6488 21.6479 17.9844 21.0999 18.4844 20.7344L24.3828 17.0234C24.5169 16.93 24.6764 16.8799 24.8399 16.8799C25.0033 16.8799 25.1628 16.93 25.2969 17.0234C25.4653 17.145 25.5787 17.3283 25.6124 17.5332C25.646 17.7382 25.5972 17.9481 25.4766 18.1172Z" fill="url(#paint0_linear_1209_1060)"/>
<path d="M20 5C10.336 5 2.50002 12.8281 2.50002 22.4922C2.49409 26.7679 4.05942 30.8967 6.89845 34.0937C6.98439 34.1875 7.06252 34.2812 7.14845 34.3672C7.33333 34.5673 7.55775 34.7269 7.80751 34.8358C8.05727 34.9447 8.32692 35.0006 8.59939 34.9998C8.87186 34.9991 9.1412 34.9418 9.39037 34.8316C9.63954 34.7213 9.8631 34.5605 10.0469 34.3594C11.3137 32.9827 12.8523 31.8838 14.5655 31.1321C16.2787 30.3804 18.1292 29.9923 20 29.9923C21.8709 29.9923 23.7213 30.3804 25.4345 31.1321C27.1477 31.8838 28.6863 32.9827 29.9531 34.3594C30.1369 34.5605 30.3605 34.7213 30.6097 34.8316C30.8588 34.9418 31.1282 34.9991 31.4006 34.9998C31.6731 35.0006 31.9428 34.9447 32.1925 34.8358C32.4423 34.7269 32.6667 34.5673 32.8516 34.3672L33.1016 34.0937C35.9406 30.8967 37.5059 26.7679 37.5 22.4922C37.5 12.8281 29.6641 5 20 5Z" stroke="url(#paint1_linear_1209_1060)" stroke-width="4" stroke-linecap="round" stroke-linejoin="round"/>
<path d="M20 10V12.5M32.5 22.5H30M10 22.5H7.5M12.9289 15.4289L11.1609 13.6609M27.0711 15.4289L28.8391 13.6609" stroke="url(#paint2_linear_1209_1060)" stroke-width="4" stroke-miterlimit="10" stroke-linecap="round"/>
<path d="M65.2237 13.9091H67.9915V22.4105C67.9915 23.3651 67.7635 24.2003 67.3075 24.9162C66.8558 25.6321 66.223 26.1903 65.4091 26.5909C64.5952 26.9872 63.647 27.1854 62.5646 27.1854C61.478 27.1854 60.5277 26.9872 59.7138 26.5909C58.8999 26.1903 58.267 25.6321 57.8153 24.9162C57.3636 24.2003 57.1378 23.3651 57.1378 22.4105V13.9091H59.9055V22.174C59.9055 22.6726 60.0142 23.1158 60.2315 23.5036C60.4531 23.8913 60.7642 24.196 61.1648 24.4176C61.5653 24.6392 62.032 24.75 62.5646 24.75C63.1016 24.75 63.5682 24.6392 63.9645 24.4176C64.3651 24.196 64.674 23.8913 64.8913 23.5036C65.1129 23.1158 65.2237 22.6726 65.2237 22.174V13.9091ZM72.8638 13.9091L75.5037 18.3707H75.606L78.2587 13.9091H81.3844L77.3894 20.4545L81.4739 27H78.2907L75.606 22.532H75.5037L72.8191 27H69.6486L73.7459 20.4545L69.7253 13.9091H72.8638ZM87.3018 13.9091H90.7152L94.3203 22.7045H94.4737L98.0788 13.9091H101.492V27H98.8075V18.4794H98.6989L95.3111 26.9361H93.483L90.0952 18.4474H89.9865V27H87.3018V13.9091ZM108.196 27.1918C107.186 27.1918 106.317 26.9872 105.588 26.5781C104.863 26.1648 104.305 25.581 103.913 24.8267C103.521 24.0682 103.325 23.1712 103.325 22.1357C103.325 21.1257 103.521 20.2393 103.913 19.4766C104.305 18.7138 104.857 18.1193 105.569 17.6932C106.285 17.267 107.124 17.054 108.087 17.054C108.735 17.054 109.338 17.1584 109.896 17.3672C110.459 17.5717 110.949 17.8807 111.366 18.294C111.788 18.7074 112.116 19.2273 112.351 19.8537C112.585 20.4759 112.702 21.2045 112.702 22.0398V22.7876H104.412V21.1001H110.139C110.139 20.7081 110.054 20.3608 109.883 20.0582C109.713 19.7557 109.476 19.5192 109.174 19.3487C108.876 19.174 108.528 19.0866 108.132 19.0866C107.719 19.0866 107.352 19.1825 107.032 19.3743C106.717 19.5618 106.47 19.8153 106.291 20.1349C106.112 20.4503 106.02 20.8018 106.016 21.1896V22.794C106.016 23.2798 106.106 23.6996 106.285 24.0533C106.468 24.407 106.726 24.6797 107.058 24.8714C107.39 25.0632 107.785 25.1591 108.241 25.1591C108.543 25.1591 108.82 25.1165 109.072 25.0312C109.323 24.946 109.538 24.8182 109.717 24.6477C109.896 24.4773 110.032 24.2685 110.126 24.0213L112.645 24.1875C112.517 24.7926 112.255 25.321 111.858 25.7727C111.466 26.2202 110.959 26.5696 110.337 26.821C109.719 27.0682 109.006 27.1918 108.196 27.1918ZM119.702 17.1818V19.2273H113.789V17.1818H119.702ZM115.131 14.8295H117.854V23.983C117.854 24.2344 117.893 24.4304 117.969 24.571C118.046 24.7074 118.153 24.8033 118.289 24.8587C118.43 24.9141 118.591 24.9418 118.775 24.9418C118.903 24.9418 119.03 24.9311 119.158 24.9098C119.286 24.8842 119.384 24.8651 119.452 24.8523L119.881 26.8786C119.744 26.9212 119.552 26.9702 119.305 27.0256C119.058 27.0852 118.758 27.1214 118.404 27.1342C117.748 27.1598 117.172 27.0724 116.678 26.8722C116.188 26.6719 115.807 26.3608 115.534 25.9389C115.261 25.517 115.127 24.9844 115.131 24.3409V14.8295ZM125.844 27.1918C124.834 27.1918 123.965 26.9872 123.236 26.5781C122.512 26.1648 121.954 25.581 121.562 24.8267C121.17 24.0682 120.974 23.1712 120.974 22.1357C120.974 21.1257 121.17 20.2393 121.562 19.4766C121.954 18.7138 122.506 18.1193 123.217 17.6932C123.933 17.267 124.773 17.054 125.736 17.054C126.383 17.054 126.986 17.1584 127.545 17.3672C128.107 17.5717 128.597 17.8807 129.015 18.294C129.437 18.7074 129.765 19.2273 129.999 19.8537C130.233 20.4759 130.351 21.2045 130.351 22.0398V22.7876H122.06V21.1001H127.787C127.787 20.7081 127.702 20.3608 127.532 20.0582C127.361 19.7557 127.125 19.5192 126.822 19.3487C126.524 19.174 126.177 19.0866 125.78 19.0866C125.367 19.0866 125.001 19.1825 124.681 19.3743C124.366 19.5618 124.118 19.8153 123.939 20.1349C123.76 20.4503 123.669 20.8018 123.665 21.1896V22.794C123.665 23.2798 123.754 23.6996 123.933 24.0533C124.116 24.407 124.374 24.6797 124.706 24.8714C125.039 25.0632 125.433 25.1591 125.889 25.1591C126.192 25.1591 126.469 25.1165 126.72 25.0312C126.971 24.946 127.187 24.8182 127.366 24.6477C127.545 24.4773 127.681 24.2685 127.775 24.0213L130.293 24.1875C130.165 24.7926 129.903 25.321 129.507 25.7727C129.115 26.2202 128.608 26.5696 127.986 26.821C127.368 27.0682 126.654 27.1918 125.844 27.1918ZM132.128 27V17.1818H134.768V18.8949H134.87C135.049 18.2855 135.349 17.8253 135.771 17.5142C136.193 17.1989 136.679 17.0412 137.229 17.0412C137.365 17.0412 137.512 17.0497 137.67 17.0668C137.827 17.0838 137.966 17.1072 138.085 17.1371V19.5533C137.957 19.5149 137.78 19.4808 137.555 19.451C137.329 19.4212 137.122 19.4062 136.934 19.4062C136.534 19.4062 136.176 19.4936 135.861 19.6683C135.55 19.8388 135.302 20.0774 135.119 20.3842C134.94 20.6911 134.851 21.0447 134.851 21.4453V27H132.128Z" fill="#1F2937"/>
<defs>
<linearGradient id="paint0_linear_1209_1060" x1="21.5716" y1="16.8799" x2="21.5716" y2="24.9856" gradientUnits="userSpaceOnUse">
<stop stop-color="#1D4ED8"/>
<stop offset="1" stop-color="#38BDF8"/>
</linearGradient>
<linearGradient id="paint1_linear_1209_1060" x1="20" y1="5" x2="20" y2="34.9998" gradientUnits="userSpaceOnUse">
<stop stop-color="#1D4ED8"/>
<stop offset="1" stop-color="#38BDF8"/>
</linearGradient>
<linearGradient id="paint2_linear_1209_1060" x1="20" y1="10" x2="20" y2="22.5" gradientUnits="userSpaceOnUse">
<stop stop-color="#1D4ED8"/>
<stop offset="1" stop-color="#38BDF8"/>
</linearGradient>
</defs>
</svg>
