<svg width="25" height="24" viewBox="0 0 25 24" fill="none" xmlns="http://www.w3.org/2000/svg">
<path d="M11 6C9.51664 6 8.0666 6.43987 6.83323 7.26398C5.59986 8.08809 4.63856 9.25943 4.07091 10.6299C3.50325 12.0003 3.35472 13.5083 3.64411 14.9632C3.9335 16.418 4.64781 17.7544 5.6967 18.8033C6.7456 19.8522 8.08197 20.5665 9.53683 20.8559C10.9917 21.1453 12.4997 20.9968 13.8701 20.4291C15.2406 19.8614 16.4119 18.9001 17.236 17.6668C18.0601 16.4334 18.5 14.9834 18.5 13.5H11V6Z" stroke="#C7D2FE" stroke-width="1.5" stroke-linecap="round" stroke-linejoin="round"/>
<path d="M14 10.5H21.5C21.5 8.51088 20.7098 6.60322 19.3033 5.1967C17.8968 3.79018 15.9891 3 14 3V10.5Z" stroke="#C7D2FE" stroke-width="1.5" stroke-linecap="round" stroke-linejoin="round"/>
</svg>
