<svg width="42" height="42" viewBox="0 0 42 42" fill="none" xmlns="http://www.w3.org/2000/svg">
<g clip-path="url(#clip0_1275_756)">
<path d="M34.2944 35.9443C32.7417 33.8885 30.7328 32.2212 28.426 31.074C26.1191 29.9267 23.5775 29.3308 21.0011 29.3331C18.4248 29.3308 15.8831 29.9267 13.5763 31.074C11.2695 32.2212 9.26054 33.8885 7.70778 35.9443M34.2944 35.9443C37.3244 33.2492 39.4614 29.6966 40.426 25.7577C41.3906 21.8188 41.135 17.6798 39.6933 13.8895C38.2515 10.0992 35.6916 6.83672 32.3531 4.53473C29.0146 2.23274 25.0552 1 21 1C16.9448 1 12.9854 2.23274 9.6469 4.53473C6.30839 6.83672 3.74851 10.0992 2.30675 13.8895C0.864981 17.6798 0.609451 21.8188 1.57405 25.7577C2.53864 29.6966 4.67778 33.2492 7.70778 35.9443M34.2944 35.9443C30.6367 39.207 25.9025 41.007 21.0011 41C16.099 41.0075 11.3661 39.2075 7.70778 35.9443M27.6678 15.9996C27.6678 17.7677 26.9654 19.4634 25.7152 20.7137C24.4649 21.964 22.7692 22.6664 21.0011 22.6664C19.233 22.6664 17.5373 21.964 16.2871 20.7137C15.0368 19.4634 14.3344 17.7677 14.3344 15.9996C14.3344 14.2314 15.0368 12.5357 16.2871 11.2855C17.5373 10.0352 19.233 9.33281 21.0011 9.33281C22.7692 9.33281 24.4649 10.0352 25.7152 11.2855C26.9654 12.5357 27.6678 14.2314 27.6678 15.9996Z" stroke="#374151" stroke-width="1.5" stroke-linecap="round" stroke-linejoin="round"/>
</g>
<defs>
<clipPath id="clip0_1275_756">
<rect width="42" height="42" fill="white"/>
</clipPath>
</defs>
</svg>
